<svg width="82" height="82" viewBox="0 0 82 82" fill="none" xmlns="http://www.w3.org/2000/svg">
<path d="M26.1861 53.2155C25.7043 53.2155 25.238 52.9566 24.9971 52.5031C24.6563 51.8471 24.9023 51.0373 25.5583 50.6888C34.299 46.0558 36.29 36.2184 36.3105 36.1159C36.4489 35.3881 37.1536 34.9115 37.8813 35.0499C38.6117 35.1908 39.0857 35.893 38.9473 36.6156C38.8628 37.0717 36.718 47.8086 26.819 53.0617C26.6115 53.1642 26.3988 53.2155 26.1861 53.2155ZM55.5754 40.426C48.5593 40.426 45.843 37.4023 45.7098 37.2434C45.2255 36.6848 45.2844 35.8366 45.843 35.3523C46.394 34.8756 47.2345 34.9269 47.7213 35.4778C47.8008 35.5547 51.15 38.9731 60.4903 37.2588C61.2232 37.1204 61.9227 37.6124 62.0508 38.3401C62.1892 39.0679 61.7049 39.7675 60.9771 39.9007C58.9425 40.2723 57.1488 40.426 55.5754 40.426Z" fill="#374150"/>
<path d="M38.1429 18.6986C41.5177 15.2162 46.5915 13.0201 51.8446 11.6543C50.0842 9.19685 47.2372 6.76247 42.6427 5.82716C42.8707 3.60803 42.7323 1.89628 42.3223 1.30178C41.4408 0.0282187 37.1282 0.140969 36.7976 1.50166C36.69 1.94241 37.3075 3.52603 37.6304 5.45559C36.69 5.49147 35.6983 5.56834 34.6528 5.71441C34.335 4.01547 33.925 2.38316 33.4151 1.62209C33.4151 1.62209 29.966 0.443344 28.5002 2.62147C28.0928 3.22366 29.3074 5.38897 29.7892 6.83934C29.1895 7.07509 28.6181 7.34416 28.0748 7.64909C27.1421 6.13209 26.112 5.02766 25.3688 4.77397C24.6693 4.53822 20.9152 7.56453 22.0632 8.74072C22.3861 9.07128 23.1241 10.1578 23.839 11.3212C20.1542 16.1156 19.1471 23.388 20.6974 30.7808C21.2919 33.6098 31.852 33.0281 32.2415 30.2247C32.2415 30.2247 31.998 21.1099 38.1429 18.6986ZM20.0465 12.7049C18.2092 9.22503 16.6743 6.21409 16.6743 6.21409C12.418 4.38447 9.18666 9.04566 9.18666 9.04566C8.42303 15.0522 15.1265 25.297 17.8915 29.2279C16.9562 23.0318 17.7249 17.2508 20.0465 12.7049Z" fill="#52D2CF"/>
<path d="M63.2681 23.6185C61.5051 24.213 59.7908 24.9382 58.1764 25.7275C62.9324 28.3028 64.1906 32.3797 64.557 36.6565C64.9542 41.2383 64.557 45.7637 64.1701 50.1378C63.9062 53.1155 63.6397 56.1879 63.6397 59.1758C63.632 71.6475 58.1713 76.5085 53.0565 76.898C52.7106 76.9237 52.3596 76.939 51.9957 76.939C41.1896 76.939 22.3578 65.6487 16.5742 45.223C15.2955 40.7027 15.7132 36.6565 17.6454 33.1177L17.0688 32.3592C16.7664 31.9595 15.8439 30.7295 14.6754 28.9947C14.5678 29.151 14.4371 29.2893 14.332 29.4482C11.0982 34.3375 10.3243 40.2287 12.0975 46.4965C18.5012 69.0901 39.7521 81.59 51.9957 81.59C52.4825 81.59 52.954 81.5695 53.4127 81.5362C60.27 81.0057 68.2829 74.8378 68.288 59.1783C68.2932 56.3929 68.5417 53.5511 68.8031 50.5427C69.2054 45.9687 69.6205 41.2408 69.19 36.2517C68.8339 32.1107 67.6525 27.2419 63.2681 23.6185Z" fill="#374150"/>
<path d="M71.668 11.9053C71.668 11.9053 53.2898 11.4928 43.1372 17.8555C43.1218 17.8708 43.1115 17.899 43.091 17.9093C41.8713 18.6832 40.8232 19.5313 39.9417 20.441L39.565 20.8357L39.0551 21.033C34.6707 22.7524 34.745 30.0812 34.7501 30.1555L34.6963 31.4188C37.7534 31.6673 41.4639 31.6904 45.3794 31.0242C45.3794 31.0242 58.8812 19.4622 71.4015 19.6415C71.4015 19.6415 74.5304 14.4243 71.668 11.9053Z" fill="#52D2CF"/>
</svg>
