<svg width="82" height="82" viewBox="0 0 82 82" fill="none" xmlns="http://www.w3.org/2000/svg">
<path d="M69.8128 4.16153C67.5194 2.35241 61.4488 0.410034 56.0676 0.410034C54.0125 0.410034 52.2264 0.697034 50.7606 1.2531L49.1411 1.88603C46.1815 3.04941 44.5517 3.69003 41.0001 3.69003C37.4459 3.69003 35.8187 3.04941 32.859 1.88603L31.2395 1.2531C29.7712 0.697034 27.9877 0.410034 25.9326 0.410034C20.5565 0.410034 14.4885 2.35241 12.1873 4.16153C9.78883 6.05266 5.33008 9.57097 5.33008 18.591C5.33008 27.7519 9.62483 35.6905 12.1873 40.4286C12.5589 41.1153 12.9023 41.7432 13.1841 42.2941C13.607 43.2704 13.5224 48.2442 13.4506 52.2443C13.3328 58.7351 13.2021 66.0869 14.2681 70.9326C15.516 76.6111 20.5667 81.59 25.0741 81.59C26.0223 81.59 26.8781 81.239 27.5418 80.5702C29.4611 78.6432 29.4406 74.4125 29.4099 69.0568C29.3996 67.2067 29.392 65.29 29.4688 63.4398C29.9352 52.6722 33.2793 48.2775 41.0001 48.2775C48.7235 48.2775 52.0624 52.6722 52.5313 63.4398C52.6108 65.2925 52.6005 67.2093 52.5903 69.0568C52.5595 74.4125 52.5416 78.6432 54.4583 80.5702C55.1271 81.2415 55.9804 81.59 56.9311 81.59C61.436 81.59 66.4841 76.6111 67.7321 70.9326C68.7981 66.0869 68.6674 58.7351 68.5546 52.2443C68.4855 48.2442 68.3958 43.2704 68.8135 42.3095C69.1005 41.7432 69.4438 41.1153 69.8154 40.4312C72.3805 35.6905 76.6726 27.7545 76.6726 18.5935C76.6701 9.57097 72.2113 6.05266 69.8128 4.16153ZM66.6661 38.7297C66.2843 39.4369 65.9332 40.0827 65.636 40.6669C64.8365 42.2044 64.8621 45.7176 64.9825 52.3007C65.0876 58.2867 65.2157 65.7282 64.2394 70.1638C63.3195 74.3766 59.4783 77.9897 56.9619 78.0179C56.124 77.1697 56.1496 72.1113 56.1624 69.0748C56.1726 67.1657 56.1829 65.1875 56.1035 63.281C55.8805 58.1995 55.2963 44.7003 41.0001 44.7003C26.7039 44.7003 26.1196 58.1995 25.9018 63.281C25.8173 65.1875 25.8275 67.1657 25.8378 69.0748C25.8531 72.1549 25.8839 77.3209 25.0741 78.0179C22.5578 78.0179 18.6884 74.3945 17.7608 70.1638C16.7845 65.7307 16.9126 58.2867 17.0228 52.3007C17.1355 45.7176 17.1611 42.2044 16.3693 40.6669C16.067 40.0827 15.7159 39.4395 15.3341 38.7297C12.7716 33.9967 8.9022 26.8422 8.9022 18.591C8.9022 11.3058 12.213 8.69716 14.4013 6.96491C15.9414 5.75028 21.1996 3.98985 25.93 3.98985C27.5495 3.98985 28.9025 4.19228 29.9634 4.59203L31.5496 5.21216C34.5785 6.40628 36.7668 7.26216 41.0001 7.26216C45.2333 7.26216 47.4217 6.40628 50.4506 5.21216L52.0368 4.59203C53.0976 4.19228 54.4481 3.98985 56.0701 3.98985C60.8031 3.98985 66.0588 5.75285 67.6014 6.96491C69.7898 8.69716 73.1005 11.3058 73.1005 18.591C73.098 26.8448 69.2286 33.9993 66.6661 38.7297Z" fill="#374150"/>
<path d="M64.001 11.5235C63.2784 11.0776 59.4961 9.79382 56.0675 9.79382C54.735 9.79382 54.1661 9.99626 54.0995 10.0219L52.5774 10.6113C49.3691 11.8823 46.3326 13.0764 41 13.0764C35.6674 13.0764 32.6309 11.8823 29.4201 10.6138L27.9005 10.0244C27.8416 9.99882 27.265 9.79639 25.9325 9.79639C22.509 9.79639 18.7293 11.0802 17.999 11.5261C16.1617 12.9739 14.7087 14.1219 14.7087 18.5909C14.7087 25.3713 18.5448 34.0043 20.2873 38.2863C21.3431 40.8846 19.4314 60.1034 21.402 60.4826C23.3777 60.8644 24.4744 38.4272 40.9974 38.891C57.5204 38.4246 58.6172 60.8644 60.5929 60.4826C62.5686 60.1034 60.6518 40.8846 61.7076 38.2863C63.4526 34.0043 67.2861 25.3738 67.2861 18.5909C67.2912 14.1219 65.8383 12.9739 64.001 11.5235Z" fill="#52D2CF"/>
</svg>
