<?xml version="1.0" encoding="UTF-8"?>
<svg version="1.1" xmlns="http://www.w3.org/2000/svg" width="289" height="197">
<path d="M0 0 C95.37 0 190.74 0 289 0 C289 65.01 289 130.02 289 197 C193.63 197 98.26 197 0 197 C0 131.99 0 66.98 0 0 Z " fill="#FEFEFE" transform="translate(0,0)"/>
<path d="M0 0 C3.3 0 6.6 0 10 0 C14.13584836 8.61883027 16.97312952 17.61887271 19.9375 26.6875 C20.71087933 29.04306736 21.48563697 31.39816847 22.26211548 33.75271606 C22.77027202 35.29433029 23.27661448 36.83654372 23.78109741 38.37936401 C24.9530286 41.94129246 26.159647 45.47776593 27.49267578 48.98291016 C27.95013184 50.19124512 28.40758789 51.39958008 28.87890625 52.64453125 C29.28826416 53.68585205 29.69762207 54.72717285 30.11938477 55.80004883 C31 59 31 59 31 67 C14.17 67 -2.66 67 -20 67 C-20 58.00050075 -20 58.00050075 -18.96191406 55.08520508 C-18.73457581 54.427043 -18.50723755 53.76888092 -18.27301025 53.09077454 C-18.02307312 52.40726425 -17.77313599 51.72375397 -17.515625 51.01953125 C-17.25875916 50.28482101 -17.00189331 49.55011078 -16.73724365 48.7931366 C-15.91977429 46.46196494 -15.08566361 44.13720384 -14.25 41.8125 C-13.16759338 38.75801545 -12.09169737 35.70125195 -11.015625 32.64453125 C-10.75388992 31.90529419 -10.49215485 31.16605713 -10.2224884 30.40441895 C-8.27185142 24.86657112 -6.49501362 19.29727975 -4.82006836 13.66918945 C-3.70605296 10.04325008 -2.37455495 6.53456988 -1 3 C-0.67 2.01 -0.34 1.02 0 0 Z " fill="#4F66B7" transform="translate(71,27)"/>
<path d="M0 0 C0.99708984 -0.01611328 1.99417969 -0.03222656 3.02148438 -0.04882812 C3.97732422 -0.04947266 4.93316406 -0.05011719 5.91796875 -0.05078125 C6.78574951 -0.05376221 7.65353027 -0.05674316 8.54760742 -0.05981445 C11.34002799 0.39921771 12.06049238 1.13344755 13.8125 3.3125 C14.07417679 6.25434741 14.16123921 8.9798721 14.10546875 11.91796875 C14.10122391 12.75717361 14.09697906 13.59637848 14.09260559 14.46101379 C14.07581464 17.14100245 14.0381623 19.8202387 14 22.5 C13.98495367 24.31704643 13.97126518 26.13410465 13.95898438 27.95117188 C13.92590982 32.40523776 13.87412513 36.85874132 13.8125 41.3125 C10.8425 41.3125 7.8725 41.3125 4.8125 41.3125 C4.8125 38.0125 4.8125 34.7125 4.8125 31.3125 C-2.7775 31.3125 -10.3675 31.3125 -18.1875 31.3125 C-18.1875 34.6125 -18.1875 37.9125 -18.1875 41.3125 C-21.1575 41.3125 -24.1275 41.3125 -27.1875 41.3125 C-27.36327828 37.00052347 -27.46885237 32.68948002 -27.5625 28.375 C-27.61277344 27.16263672 -27.66304687 25.95027344 -27.71484375 24.70117188 C-27.84586299 16.64348865 -26.86778641 11.25292088 -21.1875 5.3125 C-14.65409514 -0.01419709 -8.10939895 -0.02651864 0 0 Z " fill="#687ECC" transform="translate(185.1875,38.6875)"/>
<path d="M0 0 C1.29550781 0.00644531 2.59101563 0.01289062 3.92578125 0.01953125 C5.28906519 0.03624057 6.65234644 0.05317044 8.015625 0.0703125 C9.39452485 0.0803491 10.77343165 0.08947377 12.15234375 0.09765625 C15.52361382 0.12123157 18.89453136 0.1541398 22.265625 0.1953125 C22.265625 3.1653125 22.265625 6.1353125 22.265625 9.1953125 C8.900625 9.6903125 8.900625 9.6903125 -4.734375 10.1953125 C-4.734375 11.8453125 -4.734375 13.4953125 -4.734375 15.1953125 C-4.12440674 15.20989502 -3.51443848 15.22447754 -2.88598633 15.23950195 C-0.10566436 15.31426025 2.67349324 15.41082732 5.453125 15.5078125 C6.41283203 15.53037109 7.37253906 15.55292969 8.36132812 15.57617188 C14.98706746 15.82836265 18.66795172 16.73805399 23.578125 21.3828125 C25.77122125 25.03797291 25.9180539 28.08742685 25.265625 32.1953125 C23.9591011 36.04229955 23.0724785 37.69431001 19.60888672 39.8449707 C15.77984817 41.39151753 13.01727795 41.53934126 8.8984375 41.48828125 C7.87905594 41.48191399 7.87905594 41.48191399 6.83908081 41.47541809 C4.68917576 41.45875516 2.54024201 41.42112966 0.390625 41.3828125 C-1.0755072 41.3677495 -2.54165424 41.35406393 -4.0078125 41.34179688 C-7.58364375 41.3088933 -11.15891441 41.25719913 -14.734375 41.1953125 C-14.734375 38.2253125 -14.734375 35.2553125 -14.734375 32.1953125 C0.610625 31.7003125 0.610625 31.7003125 16.265625 31.1953125 C15.770625 28.7203125 15.770625 28.7203125 15.265625 26.1953125 C14.60030762 26.19120361 13.93499023 26.18709473 13.24951172 26.18286133 C10.21233523 26.1498083 7.17713363 26.07915216 4.140625 26.0078125 C3.09390625 26.00201172 2.0471875 25.99621094 0.96875 25.99023438 C-7.76204259 25.74157256 -7.76204259 25.74157256 -11.4140625 22.76953125 C-15.23384932 18.53175429 -15.07045581 15.45648977 -15.01953125 9.8984375 C-14.63471274 6.25056886 -13.49452963 4.57211232 -10.734375 2.1953125 C-7.1809158 -0.09597252 -4.17173203 -0.03659414 0 0 Z " fill="#677DCC" transform="translate(218.734375,38.8046875)"/>
<path d="M0 0 C1.47057839 0.00031709 2.94118001 0.01164091 4.41162109 0.03173828 C5.18565277 0.03456818 5.95968445 0.03739807 6.75717163 0.04031372 C9.23329016 0.05152325 11.70904909 0.07662875 14.18505859 0.10205078 C15.86213671 0.1120796 17.53922049 0.12120562 19.21630859 0.12939453 C23.33103082 0.15146504 27.44548371 0.18599977 31.56005859 0.22705078 C31.56005859 3.19705078 31.56005859 6.16705078 31.56005859 9.22705078 C22.32005859 9.22705078 13.08005859 9.22705078 3.56005859 9.22705078 C3.56005859 11.53705078 3.56005859 13.84705078 3.56005859 16.22705078 C11.81005859 16.22705078 20.06005859 16.22705078 28.56005859 16.22705078 C28.56005859 19.19705078 28.56005859 22.16705078 28.56005859 25.22705078 C20.31005859 25.22705078 12.06005859 25.22705078 3.56005859 25.22705078 C3.56005859 27.53705078 3.56005859 29.84705078 3.56005859 32.22705078 C12.80005859 32.22705078 22.04005859 32.22705078 31.56005859 32.22705078 C31.56005859 35.19705078 31.56005859 38.16705078 31.56005859 41.22705078 C27.39756252 41.35127587 23.2360669 41.44167725 19.07226562 41.50170898 C17.65801178 41.52675003 16.24388602 41.5607942 14.83007812 41.60424805 C1.55602508 42.00181482 1.55602508 42.00181482 -2.33837891 38.83251953 C-6.74475397 33.36959729 -5.62596977 27.23058488 -5.62524414 20.51416016 C-5.62743283 18.23597601 -5.64559944 15.95827436 -5.66455078 13.68017578 C-5.66748433 12.23746911 -5.66946938 10.79476013 -5.67041016 9.35205078 C-5.67451904 8.03462891 -5.67862793 6.71720703 -5.68286133 5.35986328 C-5.33317662 0.85016057 -4.48634369 0.29611779 0 0 Z " fill="#687DCC" transform="translate(122.43994140625,38.77294921875)"/>
<path d="M0 0 C2.31 0 4.62 0 7 0 C8.72296005 4.85155306 10.43141836 9.70788598 12.12695312 14.5690918 C12.70507706 16.22020469 13.28705848 17.86997239 13.87304688 19.51831055 C14.71735602 21.89544285 15.54742007 24.277156 16.375 26.66015625 C16.63748535 27.38960953 16.8999707 28.11906281 17.17041016 28.87062073 C17.41065918 29.57081833 17.6509082 30.27101593 17.8984375 30.99243164 C18.11161621 31.5986586 18.32479492 32.20488556 18.54443359 32.82948303 C19 35 19 35 19 42 C8.44 42 -2.12 42 -13 42 C-12.31388648 36.51109187 -11.79992097 32.7869855 -10.0390625 27.8125 C-9.64976563 26.70132813 -9.26046875 25.59015625 -8.859375 24.4453125 C-8.45203125 23.30835937 -8.0446875 22.17140625 -7.625 21 C-7.22539063 19.86304687 -6.82578125 18.72609375 -6.4140625 17.5546875 C-4.34146797 11.67779117 -2.21307693 5.82538958 0 0 Z " fill="#7A92DA" transform="translate(73,42)"/>
<path d="M0 0 C2.875 1.75 2.875 1.75 5 5 C5.97644847 10.70119912 6.0856927 15.33952882 2.875 20.25 C-0.55187542 22.33592417 -2.0669348 22.81938858 -6 22 C-11.74221596 17.15101763 -11.74221596 17.15101763 -12.23828125 13.01171875 C-12.3713075 8.84589668 -12.38831668 6.62130669 -10.125 3 C-6.7693244 -0.15828291 -4.58013378 -0.53883927 0 0 Z " fill="#7E88CE" transform="translate(141,145)"/>
<path d="M0 0 C0.69738281 0.00902344 1.39476562 0.01804688 2.11328125 0.02734375 C3.82566958 0.05080112 5.53788004 0.08666896 7.25 0.125 C7.25 4.745 7.25 9.365 7.25 14.125 C-0.34 14.125 -7.93 14.125 -15.75 14.125 C-15.75 7.125 -15.75 7.125 -14 4.3125 C-9.61671572 0.05097362 -5.95737484 -0.14640052 0 0 Z " fill="#F2F4FA" transform="translate(182.75,47.875)"/>
<path d="M0 0 C3.63 0 7.26 0 11 0 C14 3 14 3 14.1875 5.4375 C14.125625 6.283125 14.06375 7.12875 14 8 C13.80394277 11.78785995 13.80394277 11.78785995 14.75 14.4375 C15 17 15 17 13.75 19.8125 C11 22 11 22 0 22 C0 14.74 0 7.48 0 0 Z " fill="#6782CF" transform="translate(53,109)"/>
<path d="M0 0 C11.3400915 -0.49304746 11.3400915 -0.49304746 14.39453125 1.7890625 C16 4 16 4 15.9375 7.625 C15 11 15 11 12 13 C8.97670744 13.2610788 6.04123758 13.08815181 3 13 C3 15.97 3 18.94 3 22 C2.01 22 1.02 22 0 22 C0 14.74 0 7.48 0 0 Z " fill="#7885CD" transform="translate(103,145)"/>
<path d="M0 0 C1.828125 0.0390625 1.828125 0.0390625 4 1 C5.13577109 3.50467415 5.97756607 5.76135565 6.75 8.375 C6.97042969 9.06078125 7.19085938 9.7465625 7.41796875 10.453125 C8.34155414 13.40171438 9 15.89438074 9 19 C4.05 19 -0.9 19 -6 19 C-4.83230224 12.09112157 -3.12047349 6.27124284 0 0 Z " fill="#BBCDF5" transform="translate(75,56)"/>
<path d="M0 0 C1.87988281 0.23852539 1.87988281 0.23852539 4 1 C5.09667969 2.82592773 5.09667969 2.82592773 5.921875 5.18359375 C6.22480469 6.02857422 6.52773437 6.87355469 6.83984375 7.74414062 C7.14019531 8.63294922 7.44054687 9.52175781 7.75 10.4375 C8.22373047 11.76491211 8.22373047 11.76491211 8.70703125 13.11914062 C11 19.63573796 11 19.63573796 11 22 C10.01 22 9.02 22 8 22 C7.34 20.35 6.68 18.7 6 17 C3.03 16.67 0.06 16.34 -3 16 C-3.33 17.98 -3.66 19.96 -4 22 C-4.99 22 -5.98 22 -7 22 C-6.35983027 16.86243532 -4.80299667 12.41209819 -2.9375 7.625 C-2.65583984 6.88894531 -2.37417969 6.15289062 -2.08398438 5.39453125 C-1.39433382 3.5944264 -0.69786068 1.7969379 0 0 Z " fill="#7985CE" transform="translate(85,109)"/>
<path d="M0 0 C4 1 4 1 5.09667969 2.82592773 C5.36899414 3.60395752 5.64130859 4.3819873 5.921875 5.18359375 C6.22480469 6.02857422 6.52773437 6.87355469 6.83984375 7.74414062 C7.14019531 8.63294922 7.44054687 9.52175781 7.75 10.4375 C8.06582031 11.32244141 8.38164062 12.20738281 8.70703125 13.11914062 C11 19.63573796 11 19.63573796 11 22 C10.01 22 9.02 22 8 22 C7.34 20.35 6.68 18.7 6 17 C3.03 16.67 0.06 16.34 -3 16 C-3.66 17.98 -4.32 19.96 -5 22 C-5.99 21.67 -6.98 21.34 -8 21 C-5.36 14.07 -2.72 7.14 0 0 Z " fill="#6E83CF" transform="translate(204,145)"/>
<path d="M0 0 C2.9375 0.375 2.9375 0.375 4.9375 2.375 C5.203125 5.125 5.203125 5.125 5.1875 8.375 C5.19265625 9.4475 5.1978125 10.52 5.203125 11.625 C4.9375 14.375 4.9375 14.375 2.9375 16.375 C0 16.75 0 16.75 -3.0625 16.375 C-5.27692221 14.60346223 -5.93144101 13.26328869 -6.34375 10.46875 C-6.49044999 7.19245032 -6.29283977 4.88686617 -4.9375 1.875 C-3.0625 0.375 -3.0625 0.375 0 0 Z " fill="#FAFDFD" transform="translate(138.0625,147.625)"/>
<path d="M0 0 C2.4375 1.875 2.4375 1.875 4 4 C4 4.66 4 5.32 4 6 C3.01 6 2.02 6 1 6 C0.67 5.34 0.34 4.68 0 4 C-2.31 4 -4.62 4 -7 4 C-6.88551155 5.92625985 -6.88551155 5.92625985 -6 8 C-3.70152513 9.57314972 -3.70152513 9.57314972 -0.9375 10.75 C0.44115234 11.39195313 0.44115234 11.39195313 1.84765625 12.046875 C2.91306641 12.51867187 2.91306641 12.51867187 4 13 C4.48192771 18.42168675 4.48192771 18.42168675 2.4375 20.875 C-0.91413635 22.42190908 -3.34822358 22.39126176 -7 22 C-9.4375 20.6875 -9.4375 20.6875 -11 19 C-11 18.01 -11 17.02 -11 16 C-10.01 16 -9.02 16 -8 16 C-7.34 16.99 -6.68 17.98 -6 19 C-3.41619823 19.25030977 -3.41619823 19.25030977 -1 19 C-0.67 17.35 -0.34 15.7 0 14 C-0.62648438 13.73445313 -1.25296875 13.46890625 -1.8984375 13.1953125 C-2.71570313 12.84210938 -3.53296875 12.48890625 -4.375 12.125 C-5.18710938 11.77695313 -5.99921875 11.42890625 -6.8359375 11.0703125 C-9 10 -9 10 -11 8 C-10.8125 5 -10.8125 5 -10 2 C-6.2794164 -0.48038907 -4.40203429 -0.46337203 0 0 Z " fill="#7888CF" transform="translate(117,109)"/>
<path d="M0 0 C2.4375 1.3125 2.4375 1.3125 4 3 C4 3.99 4 4.98 4 6 C3.01 6 2.02 6 1 6 C0.34 5.01 -0.32 4.02 -1 3 C-2.98 3.33 -4.96 3.66 -7 4 C-6.84441127 5.94620656 -6.84441127 5.94620656 -6 8 C-3.96036036 9.31604529 -3.96036036 9.31604529 -1.5 10.1875 C2.95800525 11.95800525 2.95800525 11.95800525 4 13 C4.3125 15.875 4.3125 15.875 4 19 C1.67097984 21.79482419 0.12036325 21.98495459 -3.5 22.4375 C-7 22 -7 22 -9.4375 20.125 C-11 18 -11 18 -11 16 C-10.01 16 -9.02 16 -8 16 C-7.566875 16.495 -7.13375 16.99 -6.6875 17.5 C-4.97790291 19.3314563 -4.97790291 19.3314563 -1.8125 19.1875 C-0.884375 19.125625 0.04375 19.06375 1 19 C1.2113453 16.6087705 1.2113453 16.6087705 0 14 C-2.25827459 12.68231195 -4.53100829 11.73802845 -6.96875 10.796875 C-9 10 -9 10 -10 9 C-10.45232816 3.79822616 -10.45232816 3.79822616 -8.9375 1.125 C-5.88405803 -0.64796631 -3.45262038 -0.36343372 0 0 Z " fill="#6E83CE" transform="translate(63,145)"/>
<path d="M0 0 C4.62 0 9.24 0 14 0 C14 0.66 14 1.32 14 2 C10.37 2 6.74 2 3 2 C3 4.31 3 6.62 3 9 C5.97 9 8.94 9 12 9 C12 9.66 12 10.32 12 11 C9.03 11 6.06 11 3 11 C3 13.97 3 16.94 3 20 C6.63 20 10.26 20 14 20 C14 20.66 14 21.32 14 22 C9.38 22 4.76 22 0 22 C0 14.74 0 7.48 0 0 Z " fill="#7682CB" transform="translate(132,109)"/>
<path d="M0 0 C3.63 0 7.26 0 11 0 C11.66 0.66 12.32 1.32 13 2 C12.8125 4.5 12.8125 4.5 12 7 C8.3558226 9.4294516 6.28758728 9.16179575 2 9 C1.67 13.29 1.34 17.58 1 22 C0.67 22 0.34 22 0 22 C0 14.74 0 7.48 0 0 Z " fill="#7B7CCB" transform="translate(53,109)"/>
<path d="M0 0 C4.29 0 8.58 0 13 0 C13 0.66 13 1.32 13 2 C9.37 2 5.74 2 2 2 C2 4.31 2 6.62 2 9 C5.3 9 8.6 9 12 9 C12 9.66 12 10.32 12 11 C8.7 11 5.4 11 2 11 C2 13.97 2 16.94 2 20 C5.63 20 9.26 20 13 20 C13 20.66 13 21.32 13 22 C8.71 22 4.42 22 0 22 C0 14.74 0 7.48 0 0 Z " fill="#647BCC" transform="translate(79,145)"/>
<path d="M0 0 C0.99 0 1.98 0 3 0 C3 6.6 3 13.2 3 20 C6.3 20 9.6 20 13 20 C13 20.66 13 21.32 13 22 C8.71 22 4.42 22 0 22 C0 14.74 0 7.48 0 0 Z " fill="#7E85CB" transform="translate(158,145)"/>
<path d="M0 0 C1.32 0.33 2.64 0.66 4 1 C3.979375 2.03125 3.95875 3.0625 3.9375 4.125 C3.99276661 7.55152969 4.34550715 10.64572414 5 14 C2.98177083 13.96744792 0.96354167 13.93489583 -1.0546875 13.90234375 C-3.08185404 13.87350758 -3.08185404 13.87350758 -5 15 C-1.92482916 4.44191344 -1.92482916 4.44191344 0 0 Z " fill="#7B88CF" transform="translate(204,145)"/>
<path d="M0 0 C6.625 -0.25 6.625 -0.25 10 2 C10.3125 4.5 10.3125 4.5 10 7 C8 9 8 9 6.0546875 9.1953125 C4.03645833 9.13020833 2.01822917 9.06510417 0 9 C0 6.03 0 3.06 0 0 Z " fill="#F1F4F8" transform="translate(106,147)"/>
<path d="M0 0 C5.625 -0.25 5.625 -0.25 9 2 C9.375 4.5 9.375 4.5 9 7 C5.5647952 9.29013653 4.014669 9.17842973 0 9 C0 6.03 0 3.06 0 0 Z " fill="#F6F6F7" transform="translate(56,120)"/>
<path d="M0 0 C0.99386719 0.02707031 1.98773438 0.05414063 3.01171875 0.08203125 C4.15060547 0.13423828 4.15060547 0.13423828 5.3125 0.1875 C6.3025 3.1575 7.2925 6.1275 8.3125 9.1875 C7.3225 9.1875 6.3325 9.1875 5.3125 9.1875 C4.6525 7.5375 3.9925 5.8875 3.3125 4.1875 C0.3425 3.8575 -2.6275 3.5275 -5.6875 3.1875 C-6.0175 5.1675 -6.3475 7.1475 -6.6875 9.1875 C-7.6775 9.1875 -8.6675 9.1875 -9.6875 9.1875 C-9.08333333 3.75 -9.08333333 3.75 -7.5 1.5 C-4.95022262 -0.34639052 -3.10891866 -0.10972654 0 0 Z " fill="#6F80CD" transform="translate(87.6875,121.8125)"/>
<path d="M0 0 C5.75 -0.125 5.75 -0.125 8 1 C8 2.65 8 4.3 8 6 C5.29120665 7.35439668 2.99066732 7.06501451 0 7 C0 4.69 0 2.38 0 0 Z " fill="#F4F6F7" transform="translate(56,111)"/>
<path d="M0 0 C1.875 0.8125 1.875 0.8125 3.875 3.8125 C4.0703125 6.73046875 4.0703125 6.73046875 4 10 C3.98195312 11.08667969 3.96390625 12.17335937 3.9453125 13.29296875 C3.91050781 14.54013672 3.91050781 14.54013672 3.875 15.8125 C3.215 15.4825 2.555 15.1525 1.875 14.8125 C1.53125 12.8515625 1.53125 12.8515625 1.375 10.4375 C1.14558537 6.91598536 0.92207136 5.88310704 -1.125 2.8125 C-3.68782742 2.08284634 -3.68782742 2.08284634 -6.125 1.8125 C-3.90523089 0.46478304 -2.62352224 -0.23148726 0 0 Z " fill="#7187CF" transform="translate(142.125,146.1875)"/>
<path d="M0 0 C0.66 0.33 1.32 0.66 2 1 C2.6328125 3.06640625 2.6328125 3.06640625 3.125 5.5625 C3.29257813 6.38878906 3.46015625 7.21507812 3.6328125 8.06640625 C3.75398437 8.70449219 3.87515625 9.34257812 4 10 C1.69 10 -0.62 10 -3 10 C-2.01 6.7 -1.02 3.4 0 0 Z " fill="#EFF1F4" transform="translate(205,149)"/>
<path d="M0 0 C0.66 0 1.32 0 2 0 C2.66 2.97 3.32 5.94 4 9 C1.69 9 -0.62 9 -3 9 C-2.01 6.03 -1.02 3.06 0 0 Z " fill="#EFF4F6" transform="translate(86,114)"/>
<path d="M0 0 C0.33 0 0.66 0 1 0 C1.33 3.96 1.66 7.92 2 12 C-0.475 13.485 -0.475 13.485 -3 15 C-3 14.34 -3 13.68 -3 13 C-4.32 12.67 -5.64 12.34 -7 12 C-5.02 11.34 -3.04 10.68 -1 10 C-0.67 6.7 -0.34 3.4 0 0 Z " fill="#999BD0" transform="translate(143,152)"/>
<path d="M0 0 C0.66 0.33 1.32 0.66 2 1 C1.38983051 6.49152542 1.38983051 6.49152542 -0.4375 8.875 C-2 10 -2 10 -4 10 C-4 9.01 -4 8.02 -4 7 C-3.34 6.67 -2.68 6.34 -2 6 C-1.27306096 4.02111039 -0.60183749 2.02045442 0 0 Z " fill="#6F8CD3" transform="translate(66,121)"/>
<path d="M0 0 C0.5775 0.639375 1.155 1.27875 1.75 1.9375 C3.98062401 3.98223868 5.07436391 4.58205199 8 5 C8 5.66 8 6.32 8 7 C1.25 6.25 1.25 6.25 -1 4 C-0.625 1.875 -0.625 1.875 0 0 Z " fill="#6F84CF" transform="translate(132,160)"/>
<path d="M0 0 C2.31 0.33 4.62 0.66 7 1 C7.66 2.65 8.32 4.3 9 6 C8.01 6 7.02 6 6 6 C5.34 5.01 4.68 4.02 4 3 C1.43717258 2.27034634 1.43717258 2.27034634 -1 2 C-0.67 1.34 -0.34 0.68 0 0 Z " fill="#6E86D0" transform="translate(112,109)"/>
<path d="M0 0 C2.6855594 2.6855594 3.06049974 5.37621328 4 9 C3.01 9.33 2.02 9.66 1 10 C-0.1577506 6.52674819 -0.06866652 3.63932552 0 0 Z " fill="#758ED5" transform="translate(89,113)"/>
<path d="M0 0 C0.99 0 1.98 0 3 0 C6 3.33333333 6 3.33333333 6 6 C3.5625 5.25 3.5625 5.25 1 4 C0.1875 1.875 0.1875 1.875 0 0 Z " fill="#7B8ACF" transform="translate(106,125)"/>
<path d="M0 0 C3 0 3 0 4.6875 1.3125 C6 3 6 3 6 6 C3.5625 5.25 3.5625 5.25 1 4 C0.1875 1.875 0.1875 1.875 0 0 Z " fill="#7687CF" transform="translate(52,161)"/>
<path d="M0 0 C0 3 0 3 -2 6 C-2.103125 5.38125 -2.20625 4.7625 -2.3125 4.125 C-2.87525373 1.63473516 -2.87525373 1.63473516 -6 0 C-3.50907189 -1.24546405 -2.58919267 -0.7767578 0 0 Z " fill="#808DD0" transform="translate(66,157)"/>
<path d="M0 0 C1.9451 2.91765 2.45276317 4.62537285 3 8 C2.01 8 1.02 8 0 8 C-0.79953138 4.71303767 -1.09658936 3.28976808 0 0 Z " fill="#718BD4" transform="translate(93,123)"/>
</svg>
