<svg width="83" height="82" viewBox="0 0 83 82" fill="none" xmlns="http://www.w3.org/2000/svg">
<g clip-path="url(#clip0_69_606)">
<path d="M6.73704 81.5695C5.20466 81.5695 3.6851 81.2749 2.21166 80.6829L0.909912 80.1679V78.761C0.909912 59.1784 13.6174 55.5397 16.8999 54.9324C21.005 51.3449 24.7027 50.3224 27.975 49.4179C33.2717 47.9572 37.4537 46.8015 42.6197 34.3504C45.4872 27.4188 47.6371 22.7474 48.6723 20.5513C42.1969 14.2527 42.653 4.12567 42.6761 3.66954L42.7273 2.77523L43.4115 2.1961C44.7979 1.01992 46.32 0.427979 47.9369 0.427979C50.5993 0.427979 52.4367 2.07823 52.6391 2.26529L53.3873 2.96998L53.2823 3.99754C53.2515 4.26917 52.7313 10.6703 59.012 14.3705C60.547 13.8888 63.7706 13.0278 67.2992 13.0278C75.2378 13.0278 80.1757 17.3405 81.2033 25.1664C83.3737 41.6842 83.5352 60.5622 57.7846 75.5835C51.7012 79.13 46.2508 80.8597 41.1232 80.8597H41.1181C31.6599 80.8597 25.7687 74.9532 21.0332 70.2074C20.3132 69.4797 19.611 68.775 18.9294 68.1267C16.9691 68.5956 12.4155 70.5713 12.4155 78.761V80.0244L11.2932 80.5984C11.101 80.6983 9.34822 81.5695 6.73704 81.5695ZM5.08166 77.2466C6.23991 77.5054 7.50322 77.4388 8.3181 77.262C9.08173 64.7288 19.3445 63.8627 19.4522 63.855L20.3311 63.796L20.9845 64.3854C21.9455 65.2515 22.9372 66.2432 23.9699 67.2785C28.3825 71.7039 33.3819 76.7187 41.1207 76.7187C45.4359 76.7187 50.3405 75.1325 55.6987 72.0063C79.2763 58.2559 79.2712 42.2634 77.1007 25.7096C76.3448 19.967 73.1365 17.1714 67.3017 17.1714C63.2837 17.1714 59.586 18.55 59.5527 18.5654L58.6892 18.8857L57.8743 18.4705C50.2201 14.5525 49.2028 7.72854 49.1285 4.86879C48.5417 4.58692 47.6474 4.44342 46.8197 4.86879C46.894 7.44667 47.5602 14.5217 52.511 18.4039L53.8332 19.4443L53.085 20.9562C53.0619 21.0074 50.4302 26.3425 46.4507 35.9417C40.521 50.2609 34.9655 51.7933 29.0846 53.4154C25.8482 54.3122 22.7937 55.1553 19.2241 58.4148L18.6937 58.8914L17.9864 58.9504C17.4842 58.9939 5.74022 60.2547 5.08166 77.2466Z" fill="#374150"/>
<path d="M48.5315 41C48.5315 41 43.1451 51.9444 33.1975 54.8477C23.2576 57.7485 22.4299 58.9888 22.0122 60.2341C22.0122 60.2341 30.8528 73.9051 40.3802 73.9051C47.4527 73.9051 59.745 68.7032 69.1033 57.4512C73.8029 51.8112 75.3199 41 75.3199 41C75.3199 41 57.6438 43.7239 48.5315 41ZM33.974 62.3046C33.0591 62.3046 32.3186 61.5615 32.3186 60.6467C32.3186 59.7344 33.0566 58.9913 33.974 58.9913C34.8913 58.9913 35.6293 59.7344 35.6293 60.6467C35.6293 61.5615 34.8888 62.3046 33.974 62.3046ZM44.1215 69.6487C42.8863 69.6487 41.8793 68.6494 41.8793 67.4142C41.8793 66.1817 42.8863 65.1772 44.1215 65.1772C45.3515 65.1772 46.3585 66.1817 46.3585 67.4142C46.3585 68.6494 45.354 69.6487 44.1215 69.6487ZM48.6699 59.1092C47.7525 59.1092 47.012 58.3661 47.012 57.4512C47.012 56.539 47.7525 55.7959 48.6699 55.7959C49.5821 55.7959 50.3253 56.539 50.3253 57.4512C50.3227 58.3661 49.5821 59.1092 48.6699 59.1092ZM53.5899 48.4979C52.6751 48.4979 51.932 47.7548 51.932 46.8425C51.932 45.9251 52.6751 45.182 53.5899 45.182C54.5021 45.182 55.2453 45.9251 55.2453 46.8425C55.2427 47.7548 54.5021 48.4979 53.5899 48.4979ZM60.7495 59.1092C59.8347 59.1092 59.0941 58.3661 59.0941 57.4512C59.0941 56.539 59.8321 55.7959 60.7495 55.7959C61.6669 55.7959 62.4049 56.539 62.4049 57.4512C62.4049 58.3661 61.6643 59.1092 60.7495 59.1092ZM65.2826 51.0091C64.0449 51.0091 63.043 50.0072 63.043 48.7746C63.043 47.5369 64.0449 46.535 65.2826 46.535C66.5151 46.535 67.5171 47.5369 67.5171 48.7746C67.5171 50.0098 66.5177 51.0091 65.2826 51.0091Z" fill="#52D2CF"/>
</g>
<defs>
<clipPath id="clip0_69_606">
<rect width="82" height="82" fill="white" transform="translate(0.5)"/>
</clipPath>
</defs>
</svg>
