<svg width="82" height="82" viewBox="0 0 82 82" fill="none" xmlns="http://www.w3.org/2000/svg">
<g clip-path="url(#clip0_69_566)">
<path d="M77.1303 56.2535C71.3884 48.9508 57.3353 45.2601 56.7466 45.1092L55.213 44.7188L54.6388 46.0474C54.0864 47.3367 53.2397 48.6949 52.2403 50.0662C48.9551 52.3561 45.2628 52.8679 40.9964 52.8679C36.7299 52.8679 33.0413 52.3561 29.7452 50.0596C28.7603 48.6949 27.9136 47.3367 27.3539 46.0474L26.7797 44.7188L25.2534 45.1092C24.6574 45.2633 10.6043 48.9541 4.86244 56.2535C1.51179 60.5249 0 68.136 0 72.1777V72.7551L0.410654 73.1947C0.75226 73.5556 9.02712 82 40.9964 82C72.9729 82 81.2477 73.5589 81.5893 73.1947L82 72.7551V72.1777C82 68.136 80.4882 60.5249 77.1303 56.2535ZM40.9964 78.8506C14.7908 78.8506 5.48023 73.0274 3.50691 71.5118C3.65591 67.7325 5.10956 61.3811 7.70794 58.0775C9.40507 55.9254 12.0434 54.0981 14.8054 52.6218C14.878 54.1703 15.1179 55.932 15.594 57.7757C10.3899 60.2132 11.6837 64.5634 12.654 67.8145C12.9229 68.7331 13.1918 69.609 13.3372 70.4226C13.6788 72.45 14.4601 73.7656 15.7066 74.4315C16.3099 74.7563 16.9931 74.9105 17.7635 74.9105C18.5339 74.9105 19.4025 74.753 20.3764 74.4315C21.0524 74.2117 21.3976 73.5326 21.1578 72.9224C20.9107 72.3057 20.1584 71.9973 19.4752 72.2171C18.6866 72.4697 17.6291 72.7092 17.0331 72.3943C16.5207 72.122 16.1318 71.3182 15.9174 70.0617C15.7466 69.1169 15.4631 68.1393 15.1797 67.1944C13.9804 63.2019 13.5189 60.8759 17.9271 59.4226C22.3498 57.9725 23.6544 60.0197 25.5841 63.7629C26.0456 64.6519 26.5217 65.5705 27.0668 66.3808C27.7973 67.4667 28.0735 68.3099 27.8772 68.8249C27.6919 69.2941 27.0269 69.7238 25.8894 70.1076C25.2062 70.3275 24.8537 71.0065 25.108 71.6167C25.3552 72.2335 26.1074 72.5485 26.7906 72.3221C28.7204 71.6889 29.8869 70.79 30.3484 69.6057C30.8318 68.3689 30.4829 66.9189 29.3054 65.1604C28.8366 64.4551 28.4042 63.6317 27.9645 62.7689C26.3473 59.6358 24.145 55.4104 18.0542 56.9195C17.5564 54.8658 17.3856 52.9236 17.3783 51.3522C20.3365 50.0006 23.142 49.0623 24.7592 48.5604C28.8112 56.0829 39.361 64.6585 39.8262 65.0456L40.9891 65.9839L42.1593 65.0456C42.6281 64.6585 53.1743 56.0829 57.2227 48.5604C58.8471 49.059 61.6599 49.9973 64.6181 51.3522C64.6035 54.7378 63.9167 59.6227 60.7441 63.612C59.196 62.8935 57.2445 62.8804 55.5909 63.7727C53.0652 65.1145 52.1785 67.9752 53.6031 70.1372C55.0313 72.3221 58.2293 72.9979 60.7441 71.6561C63.2698 70.311 64.1529 67.4569 62.7247 65.2753C62.7102 65.2621 62.6956 65.249 62.6884 65.2293C66.0245 61.1777 67.0093 56.3289 67.1946 52.6317C69.9493 54.1014 72.5804 55.9221 74.2775 58.0808C76.8759 61.3844 78.3296 67.7325 78.4858 71.515C76.4834 73.0438 67.1583 78.8506 40.9964 78.8506ZM59.2432 69.3465C58.2002 69.9108 56.8738 69.6254 56.2778 68.7199C55.6818 67.8145 56.0488 66.6269 57.0955 66.0659C58.1457 65.5016 59.4794 65.787 60.0682 66.6925C60.6642 67.6012 60.2935 68.7888 59.2432 69.3465Z" fill="#52D2CF"/>
<path d="M18.1814 27.0292C18.4212 30.2574 19.744 32.3865 22.0989 33.3543C24.9081 43.3931 31.9219 49.3474 40.9927 49.3474C50.0634 49.3474 57.0772 43.3931 59.8864 33.3543C62.2486 32.3865 63.5641 30.2607 63.8112 27.0292C64.0256 24.1619 62.91 22.4822 61.6816 21.5046C61.8888 20.9207 62.0523 20.3433 62.085 19.7396C62.1832 18.2437 63.5241 0 40.989 0C18.4539 0 19.7877 18.2437 19.8858 19.7396C19.9294 20.3433 20.0929 20.9207 20.3037 21.4981C19.079 22.4822 17.9633 24.1619 18.1814 27.0292ZM22.1571 26.045C23.0438 28.7876 24.3521 27.4984 24.3521 27.4984C23.9342 26.0614 24.254 24.4539 24.3957 23.0268C25.0353 16.5082 30.0249 10.8097 30.0249 10.8097C30.0249 10.8097 34.0152 12.5649 40.9999 12.5649C47.9847 12.5649 51.9786 10.8097 51.9786 10.8097C51.9786 10.8097 56.9682 16.5049 57.6078 23.0268C57.735 24.4572 58.0693 26.0647 57.6514 27.4984C57.6514 27.4984 58.9488 28.7876 59.8392 26.045C59.9227 25.7793 60.0245 25.5693 60.1153 25.3233C60.2643 25.8744 60.3697 26.3993 60.337 26.8193C60.0899 30.113 58.5927 30.4837 57.9603 30.6445L56.9609 30.8971L56.7284 31.8157C55.6345 36.1363 51.9313 46.1915 41.0072 46.1915C30.0831 46.1915 26.3799 36.1396 25.2933 31.8157L25.0607 30.8971L24.0541 30.6445C23.4145 30.4837 21.9245 30.1196 21.6847 26.8193C21.6265 26.1139 21.6919 25.5693 21.8264 25.1166C21.9245 25.4315 22.0444 25.7137 22.1571 26.045Z" fill="#374150"/>
<path d="M30.0218 32.1659H35.7274C38.6928 32.1659 40.5244 28.3145 40.5898 25.4603H41.4075C41.4729 28.3145 43.3008 32.1659 46.2699 32.1659H51.9754C55.0572 32.1659 55.973 29.8695 56.638 27.5173C57.1759 25.6276 56.8015 23.551 55.6641 22.2354C55.0172 21.4842 54.1959 21.0741 53.3273 21.0741H45.2633C43.9731 21.0741 42.8865 21.5826 42.2033 22.5045C42.0761 22.6751 42.0107 22.9014 41.9126 23.1015H40.0737C39.9756 22.9014 39.9102 22.6751 39.783 22.5045C39.0998 21.5859 38.0168 21.0741 36.7158 21.0741H28.6663C27.7941 21.0741 26.9619 21.4875 26.3223 22.2354C25.1921 23.551 24.8105 25.6276 25.3483 27.5107C26.0279 29.8695 26.9364 32.1659 30.0218 32.1659ZM44.3729 23.8134C44.5146 23.6264 44.729 23.4394 45.2669 23.4394L53.2946 23.4329C53.7271 23.551 54.6356 25.0896 54.1123 26.9268C53.3455 29.607 52.7931 29.8006 51.9754 29.8006H46.2699C45.5467 29.8006 44.0131 27.6747 44.0131 25.3028C44.0131 24.6631 44.1403 24.1382 44.3729 23.8134ZM28.6663 23.4394H36.7231C37.2609 23.4394 37.4754 23.6297 37.6098 23.8134C37.8497 24.1382 37.9878 24.6631 37.9878 25.3028C37.9878 27.6747 36.4542 29.8006 35.731 29.8006H30.0254C29.2005 29.8006 28.6554 29.607 27.8886 26.9202C27.3616 25.0896 28.2629 23.551 28.6663 23.4394Z" fill="#52D2CF"/>
<path d="M80.4118 0H67.5882C66.7091 0 66 0.711873 66 1.58834V14.4144C66 15.2909 66.7104 16 67.5882 16H80.4118C81.2909 16 82 15.2895 82 14.4144V1.58834C82 0.711873 81.2909 0 80.4118 0ZM78.7591 9.51359H75.5128V12.763H72.4859V9.51359H69.2395V6.48778H72.4859V3.23978H75.5128V6.48778H78.7591V9.51359Z" fill="#52D2CF"/>
</g>
<defs>
<clipPath id="clip0_69_566">
<rect width="82" height="82" fill="white"/>
</clipPath>
</defs>
</svg>
