<svg width="83" height="82" viewBox="0 0 83 82" fill="none" xmlns="http://www.w3.org/2000/svg">
<path d="M64.6036 5.06097C59.4325 2.06285 53.1979 0.412598 47.0274 0.412598C35.0016 0.412598 24.6798 6.28329 18.7271 16.5256C14.7373 23.3803 14.4042 27.1138 14.1403 30.1171C13.8661 33.1255 13.6918 35.1114 9.3817 39.7675C6.22727 43.1756 5.08695 45.6689 5.69427 47.8547C6.39895 50.4275 9.14339 51.2347 11.3446 51.883C11.6188 51.9624 11.8853 52.0444 12.1466 52.1238C12.4721 57.0695 13.8328 70.4073 18.9578 73.185C20.0494 73.7744 21.2948 74.0742 22.6606 74.0742C24.8387 74.0742 27.0296 73.3157 28.7824 72.7058C29.6741 72.4009 30.5838 72.0832 31.2193 71.9858C32.129 76.2037 33.3155 80.0525 33.3718 80.2191L33.7972 81.5952H69.5825L68.6062 78.966C68.5857 78.9045 66.2026 72.4112 66.2026 67.3912C66.2026 64.7288 68.3756 59.9241 70.482 55.2732C72.1886 51.5012 73.9541 47.5985 74.7255 44.4594L75.0765 43.0577C77.5058 33.3125 82.0388 15.17 64.6036 5.06097ZM71.2789 42.107L70.9278 43.5241C70.2411 46.3147 68.555 50.0457 66.9201 53.6588C64.537 58.9145 62.2845 63.8832 62.2845 67.3861C62.2845 70.9941 63.2993 75.0864 64.0757 77.6873H36.6903C36.2495 76.1498 35.5295 73.5258 34.9683 70.8352C34.5967 69.085 33.3129 68.0395 31.5294 68.0395C30.3173 68.0395 29.0181 68.4931 27.5063 69.0133C25.2 69.8102 22.4274 70.6225 20.8156 69.7436C18.3223 68.3983 16.3568 58.7735 15.9648 50.635L15.9058 49.4332L14.8091 48.9438C14.0839 48.6184 13.2562 48.3723 12.4465 48.1392C11.5906 47.8829 9.58414 47.2961 9.45345 46.8143C9.44833 46.8041 9.19464 45.7099 12.244 42.4171C17.4613 36.7873 17.7252 33.8558 18.0276 30.463C18.2736 27.7083 18.5529 24.5898 22.102 18.4859C27.3371 9.48385 36.4263 4.31529 47.0274 4.31529C52.5188 4.31529 58.0641 5.78104 62.6433 8.43835C77.5365 17.0791 73.7722 32.1415 71.2789 42.107Z" fill="#374150"/>
<path d="M54.6174 10.3243C53.2413 9.82466 48.5827 8.35635 45.2335 10.0963C43.5628 9.42748 39.7831 8.63054 35.4627 12.4461C33.8201 12.8869 27.6445 14.8395 24.8924 19.8184C24.1108 20.7384 19.998 25.8685 20.8795 30.7295C21.3203 33.1332 22.8526 35.0397 25.3126 36.3286C25.5176 36.4567 30.2736 39.46 37.7408 37.2075C38.3404 37.4817 39.022 37.697 39.7984 37.8507C46.525 39.1807 48.9671 40.7848 50.2483 44.7208C51.3835 48.2365 51.3143 49.6946 51.2195 51.5422C51.1888 52.1187 51.1606 52.7209 51.1606 53.4051V54.8965H58.3638L58.6431 53.7587C59.4041 50.594 60.9698 46.8067 62.0819 46.2147C64.9058 44.7029 70.1487 39.3959 70.5459 34.212L70.5869 33.6969C70.6509 32.8897 70.7227 31.9672 70.7663 30.9807C70.9072 28.0543 71.3172 19.393 64.6649 16.8844C63.6271 14.0605 60.5624 9.98354 54.6174 10.3243ZM67.8117 28.7077C65.6899 28.0876 62.2152 27.6955 57.9768 29.5328C57.2209 29.8634 56.8698 30.7449 57.2004 31.4957C57.4413 32.062 57.9922 32.4003 58.5713 32.4003C58.7712 32.4003 58.9711 32.3593 59.1658 32.2773C63.2453 30.5015 66.3485 31.2754 67.7246 31.816C67.6836 32.3952 67.6451 32.9538 67.6041 33.456L67.5631 33.9788C67.2684 37.7969 62.9327 42.3633 60.6674 43.5779C58.2997 44.8515 56.7033 49.5485 56.037 51.9112H54.1843C54.1894 51.8368 54.1946 51.7625 54.1997 51.6934C54.2996 49.7074 54.3893 47.8342 53.0824 43.7957C51.2349 38.107 47.0221 36.2364 40.375 34.9167C39.7395 34.7937 39.2193 34.6245 38.8093 34.4067C38.7145 34.3375 38.6146 34.2735 38.5044 34.2299C38.1789 34.0044 37.9534 33.7456 37.8279 33.4458C37.3384 32.308 38.202 30.5245 38.5377 29.9992L38.7529 29.5021C38.7529 29.4867 39.1373 27.857 40.5288 26.9703C41.4897 26.3579 42.7607 26.2221 44.3033 26.568L45.3949 26.7833L45.9356 25.8223C45.9946 25.7173 47.4065 23.3342 52.2522 23.3342C53.0722 23.3342 53.7436 22.6628 53.7436 21.8428C53.7436 21.0151 53.0722 20.3463 52.2522 20.3463C47.5013 20.3463 45.0541 22.2733 43.983 23.4777C42.0458 23.2137 40.3443 23.5417 38.9272 24.454C36.9054 25.7429 36.1289 27.8288 35.9086 28.5847C35.4243 29.4073 34.0226 32.1184 35.0681 34.6015C35.0937 34.6604 35.1193 34.7219 35.1475 34.7809C30.0917 35.7623 27.0603 33.8968 26.8143 33.7559C25.0666 32.841 24.0878 31.6725 23.8161 30.2017C23.4907 28.4233 24.2518 26.3784 25.1819 24.6769C26.4273 24.9024 28.5747 25.5302 28.5747 27.3137C28.5747 28.1389 29.2409 28.8102 30.0609 28.8102C30.8912 28.8102 31.5574 28.1389 31.5574 27.3137C31.5574 24.2567 29.1897 22.714 26.9373 22.0299C27.0423 21.9069 27.1474 21.7633 27.2371 21.666L27.4369 21.3815C29.8636 16.828 36.4467 15.2751 36.5056 15.2597L36.9054 15.17L37.1949 14.901C40.2392 12.0797 42.7504 12.4025 43.8703 12.7741C43.9061 15.6031 41.3923 16.5307 41.0669 16.6332C40.2853 16.8741 39.8394 17.7044 40.0752 18.4936C40.2751 19.1368 40.867 19.5545 41.5076 19.5545C41.6537 19.5545 41.7972 19.534 41.9433 19.4904C43.8011 18.9318 46.9581 16.7947 46.8479 12.6588C49.0004 11.7363 52.5289 12.7126 53.8358 13.2277L54.1664 13.3635L54.5174 13.3327C58.7609 12.9663 60.7289 15.5877 61.5284 17.2124C56.4931 19.3649 55.6936 23.388 56.0626 25.3842C56.1933 26.0991 56.8186 26.6065 57.5233 26.6065C57.6181 26.6065 57.7078 26.5962 57.8026 26.5809C58.6072 26.4322 59.1427 25.6558 58.9941 24.8435C58.989 24.8076 58.4329 21.3559 63.4247 19.6493C66.3152 20.6615 67.7297 23.5622 67.8117 28.7077Z" fill="#52D2CF"/>
</svg>
