<svg width="83" height="82" viewBox="0 0 83 82" fill="none" xmlns="http://www.w3.org/2000/svg">
<path d="M31.5625 43.6137C27.9366 41.6944 30.3197 34.9576 29.2844 34.4374C28.2441 33.9172 24.2261 34.645 24.2261 41.6944C24.2261 46.576 25.6969 50.8502 27.5214 52.6747C29.346 54.4992 31.5113 53.8637 31.7726 53.5024C32.2877 52.7798 30.5529 51.1167 31.1474 47.6984C31.5164 45.574 34.4914 45.1615 31.5625 43.6137ZM50.8709 53.2897C51.7678 52.4902 52.4802 51.7625 52.5571 51.1167C52.7646 49.3563 52.3521 46.3172 49.9715 45.6612C47.5884 45.0026 46.0304 46.1429 42.2404 46.248C39.9803 46.312 36.4979 45.4203 35.0449 45.7329C33.5946 46.0404 32.4543 50.2916 35.0449 53.71C37.5972 57.0745 37.774 59.7524 37.7791 65.0772H42.6095L46.3405 65.9844C46.4353 62.1867 46.5736 58.9144 46.7966 57.9586C46.9554 57.2642 47.4064 56.5954 47.9804 55.9522C48.147 58.5864 48.3904 62.5019 48.5954 66.5302L52.183 67.404C51.9318 62.1842 51.5244 56.7184 50.8709 53.2897ZM48.7902 70.8249C48.9798 75.4169 49.0618 79.6143 48.8645 81.59H52.6032C52.6032 81.59 52.5648 76.67 52.3316 70.7096L48.7902 70.8249ZM42.0995 68.5699L37.774 67.6449C37.7535 73.3849 37.6741 81.59 37.6741 81.59H46.1713C46.1713 81.59 46.1713 76.4317 46.2508 70.9018L40.5184 71.0863L42.0995 68.5699Z" fill="#52D2CF"/>
<path d="M37.3924 30.2965C34.4891 34.0275 33.7101 31.8442 32.3597 35.9903C31.0015 40.1339 32.7722 43.665 37.6922 43.5574C42.6122 43.4523 45.1004 42.8348 48.4137 43.5574C51.727 44.28 53.8001 37.5509 51.727 31.383C49.6565 25.215 51.8962 6.2141 52.7238 0.410034H42.2407C41.7179 6.69841 39.8063 27.1958 37.3924 30.2965Z" fill="#52D2CF"/>
<path d="M23.4061 30.2682C26.5221 24.0593 27.2217 5.15826 27.2498 4.3562H23.9314C23.7367 9.7067 22.7475 24.19 20.4438 28.7819C18.8243 31.9979 16.4797 45.2819 20.9538 52.8592C24.6258 59.0784 25.5765 77.5668 25.6457 79.0172H28.9642C28.9308 78.1741 28.0288 58.3301 23.8058 51.1756C20.0723 44.8411 22.0787 32.905 23.4061 30.2682ZM59.9576 47.1423C59.6501 45.6073 59.358 44.139 59.1094 42.7629C57.9947 36.5284 58.8557 34.4733 60.0447 31.6289C60.7033 30.0632 61.4413 28.2925 61.9487 25.6634C63.4298 17.9887 64.2882 8.69451 64.6342 4.35364H61.3106C60.9544 8.71758 60.1165 17.6504 58.6943 25.0407C58.2535 27.329 57.6103 28.8639 56.9902 30.3451C55.6885 33.4636 54.5584 36.1491 55.8448 43.3523C56.0985 44.7489 56.3957 46.2351 56.7058 47.7906C57.6821 52.685 58.7968 58.2353 58.9915 63.7575C59.1837 69.3181 58.0485 75.7346 57.372 79.0095H60.7622C61.4746 75.4323 62.5022 69.2284 62.3023 63.6396C62.105 57.8509 60.9647 52.1622 59.9576 47.1423Z" fill="#374150"/>
</svg>
