<svg width="89" height="90" viewBox="0 0 89 90" fill="none" xmlns="http://www.w3.org/2000/svg">
<g filter="url(#filter0_d_69_578)">
<path d="M25.868 31.5392C25.1915 32.4899 24.6636 33.2407 23.5925 33.2407H23.3465L23.0825 33.169C22.6367 33.0434 21.5732 32.5643 21.3272 30.8935C21.1402 29.6071 21.4964 27.6161 22.6059 25.8069C16.8095 24.7614 16.1459 23.8056 15.8307 23.3598C15.0875 22.2938 15.2567 21.4456 15.5283 20.9228C16.1664 19.6928 17.5757 19.6928 18.5059 19.6928C18.8954 19.6928 19.3669 19.7056 19.9281 19.7184C20.6866 19.7389 21.6065 19.7646 22.6982 19.7646C22.6982 19.7646 23.4925 19.7594 23.8769 19.7543C21.0351 14.8087 21.4707 13.4454 21.6219 12.9509C21.8295 12.3077 22.2959 11.7952 22.9109 11.5492L23.2312 11.4185L23.6847 11.398C24.9993 11.398 25.745 12.4128 26.9852 14.0861C27.7258 15.0906 28.6714 16.3334 29.8373 17.5557C30.606 16.1027 31.6541 14.7703 32.8098 13.3276C35.4517 10.0245 33.4402 -1.82706 20.4867 0.779C12.7172 2.34469 2.49798 8.51775 4.64023 27.0011C5.75492 36.6207 9.06567 41.6176 14.3188 43.9494C19.167 46.0942 25.8705 46.0558 29.353 43.3626C35.3749 38.7142 31.895 33.3586 29.8424 27.7903C28.064 28.4566 26.6675 30.4194 25.868 31.5392ZM63.1319 31.5392C63.8058 32.4899 64.3337 33.2407 65.4048 33.2407H65.661L65.9224 33.169C66.3632 33.0434 67.4292 32.5643 67.6752 30.8935C67.8597 29.6071 67.5112 27.6161 66.3939 25.8069C72.1929 24.7589 72.8591 23.8031 73.1743 23.3572C73.9225 22.2912 73.7534 21.443 73.4818 20.9202C72.8412 19.6902 71.4292 19.6903 70.499 19.6903C70.1095 19.6903 69.638 19.7031 69.082 19.7159C68.3209 19.7364 67.3959 19.762 66.3068 19.762C66.3068 19.762 65.5175 19.7569 65.128 19.7518C67.9699 14.8061 67.5394 13.4429 67.3805 12.9483C67.1806 12.3051 66.7065 11.7926 66.0941 11.5466L65.7764 11.4185L65.3202 11.398C64.0108 11.398 63.2625 12.4128 62.0197 14.0861C61.2766 15.0906 60.331 16.3334 59.1677 17.5557C58.4015 16.1027 57.3483 14.7703 56.1952 13.3276C53.5532 10.0245 55.5648 -1.82706 68.5182 0.779C76.2852 2.34469 86.507 8.51775 84.3647 27.0011C83.2526 36.6207 79.9393 41.6176 74.6836 43.9494C69.8354 46.0942 63.1344 46.0558 59.652 43.3626C53.6301 38.7142 57.1151 33.3586 59.1625 27.7903C60.9384 28.4566 62.3324 30.4194 63.1319 31.5392Z" fill="#52D2CF"/>
<path d="M61.9839 21.4302C61.9839 21.4302 66.9142 13.8094 65.4228 13.2097C64.508 12.8459 62.5554 17.4712 58.2145 20.869C56.0312 22.5757 53.1535 23.6391 49.6967 24.3566V10.6729H45.9965V46.3223C47.0445 46.3557 48.3053 46.4402 49.6967 46.6145V27.8903C52.1132 26.7628 55.6674 25.4534 58.545 25.807C62.6732 26.3092 64.941 31.5854 65.4228 31.4496C66.4683 31.1524 66.0224 26.668 62.7322 24.5744C62.7322 24.5744 70.927 23.4341 71.7009 22.3322C72.7464 20.8332 69.9123 21.8812 61.9839 21.4302ZM39.3084 24.3592C35.849 23.6417 32.9713 22.5782 30.7906 20.8716C26.4497 17.4712 24.492 12.8484 23.5772 13.2123C22.0858 13.8119 27.016 21.4302 27.016 21.4302C19.0877 21.8787 16.2535 20.8332 17.3016 22.3271C18.0729 23.429 26.2652 24.5693 26.2652 24.5693C22.9827 26.6629 22.5317 31.1472 23.5772 31.4445C24.0589 31.5829 26.3242 26.3067 30.4549 25.8019C33.3377 25.4482 36.8868 26.7602 39.3084 27.8852V46.6093C40.6998 46.4377 41.9529 46.3505 43.0035 46.3172V10.6729H39.3084V24.3592Z" fill="#374150"/>
<path d="M63.3422 59.163C63.2755 49.2282 49.7148 48.0776 44.5001 48.0776C39.2931 48.0776 25.7247 49.2282 25.6555 59.163C25.6042 67.0555 35.4622 71.7603 41.4072 73.1517V81.59H47.593V73.1517C53.5406 71.7603 63.396 67.0555 63.3422 59.163ZM56.6438 63.4347C53.0793 67.0222 46.4322 68.9569 44.5001 68.9569C42.5654 68.9569 35.9234 67.0222 32.3615 63.4347C31.0367 62.1048 30.3858 60.7876 30.3243 59.4193H58.6758C58.6169 60.7876 57.966 62.1048 56.6438 63.4347Z" fill="#374150"/>
</g>
<defs>
<filter id="filter0_d_69_578" x="-0.5" y="0" width="90" height="90" filterUnits="userSpaceOnUse" color-interpolation-filters="sRGB">
<feFlood flood-opacity="0" result="BackgroundImageFix"/>
<feColorMatrix in="SourceAlpha" type="matrix" values="0 0 0 0 0 0 0 0 0 0 0 0 0 0 0 0 0 0 127 0" result="hardAlpha"/>
<feOffset dy="4"/>
<feGaussianBlur stdDeviation="2"/>
<feComposite in2="hardAlpha" operator="out"/>
<feColorMatrix type="matrix" values="0 0 0 0 0 0 0 0 0 0 0 0 0 0 0 0 0 0 0.25 0"/>
<feBlend mode="normal" in2="BackgroundImageFix" result="effect1_dropShadow_69_578"/>
<feBlend mode="normal" in="SourceGraphic" in2="effect1_dropShadow_69_578" result="shape"/>
</filter>
</defs>
</svg>
